<svg width="512" height="512" viewBox="0 0 512 512" fill="none" xmlns="http://www.w3.org/2000/svg">
<rect width="512" height="512" rx="32" fill="url(#paint0_radial_7_18467)"/>
<path d="M286.157 382.667H229.488L180.398 300.37L131.309 382.667H75L152.244 253.085L78.9705 130H135.279L180.398 205.8L225.517 130H281.826L208.552 252.724L286.157 382.667Z" fill="white"/>
<path d="M350.407 130C374.711 130 395.165 138.182 411.769 154.545C428.372 170.908 436.674 191.001 436.674 214.824C436.674 238.647 428.372 258.74 411.769 275.103C395.165 291.466 374.711 299.648 350.407 299.648H306.01V382.667H256.198V130H350.407ZM350.407 253.085C360.995 253.085 369.778 249.475 376.756 242.256C383.735 234.797 387.224 225.652 387.224 214.824C387.224 203.755 383.735 194.61 376.756 187.391C369.778 180.172 360.995 176.563 350.407 176.563H306.01V253.085H350.407Z" fill="white"/>
<defs>
<radialGradient id="paint0_radial_7_18467" cx="0" cy="0" r="1" gradientUnits="userSpaceOnUse" gradientTransform="translate(417 523) rotate(-125.443) scale(525.963)">
<stop stop-color="#0784C7"/>
<stop offset="1" stop-color="#00F0FF"/>
</radialGradient>
</defs>
</svg>
