<svg width="98" height="22" viewBox="0 0 98 22" fill="none" xmlns="http://www.w3.org/2000/svg">
<path d="M16.3166 21.5242H11.9376L8.14435 15.1649L4.35109 21.5242H0L5.96881 11.5111L0.306808 2H4.6579L8.14435 7.85727L11.6308 2H15.9819L10.3199 11.4832L16.3166 21.5242Z" fill="#0784C7"/>
<path d="M21.2813 2C23.1593 2 24.7399 2.63221 26.0229 3.89664C27.3059 5.16106 27.9474 6.7137 27.9474 8.55456C27.9474 10.3954 27.3059 11.9481 26.0229 13.2125C24.7399 14.4769 23.1593 15.1091 21.2813 15.1091H17.8506V21.5242H14.0016V2H21.2813ZM21.2813 11.5111C22.0995 11.5111 22.7782 11.2322 23.3174 10.6743C23.8566 10.0979 24.1262 9.39131 24.1262 8.55456C24.1262 7.69921 23.8566 6.99262 23.3174 6.43479C22.7782 5.87695 22.0995 5.59803 21.2813 5.59803H17.8506V11.5111H21.2813Z" fill="#0784C7"/>
<path d="M34.05 15.66C34.57 17.54 35.98 18.48 38.28 18.48C39.76 18.48 40.88 17.98 41.64 16.98L44.76 18.78C43.28 20.92 41.1 21.99 38.22 21.99C35.74 21.99 33.75 21.24 32.25 19.74C30.75 18.24 30 16.35 30 14.07C30 11.81 30.74 9.93 32.22 8.43C33.7 6.91 35.6 6.15 37.92 6.15C40.12 6.15 41.93 6.91 43.35 8.43C44.79 9.95 45.51 11.83 45.51 14.07C45.51 14.57 45.46 15.1 45.36 15.66H34.05ZM33.99 12.66H41.64C41.42 11.64 40.96 10.88 40.26 10.38C39.58 9.88 38.8 9.63 37.92 9.63C36.88 9.63 36.02 9.9 35.34 10.44C34.66 10.96 34.21 11.7 33.99 12.66Z" fill="#0784C7"/>
<path d="M56.5516 6.15C58.1916 6.15 59.5416 6.7 60.6016 7.8C61.6816 8.9 62.2216 10.42 62.2216 12.36V21.57H58.3516V12.84C58.3516 11.84 58.0816 11.08 57.5416 10.56C57.0016 10.02 56.2816 9.75 55.3816 9.75C54.3816 9.75 53.5816 10.06 52.9816 10.68C52.3816 11.3 52.0816 12.23 52.0816 13.47V21.57H48.2116V6.57H52.0816V8.25C53.0216 6.85 54.5116 6.15 56.5516 6.15Z" fill="#0784C7"/>
<path d="M69.0961 10.83C69.0961 11.23 69.3561 11.56 69.8761 11.82C70.4161 12.06 71.0661 12.28 71.8261 12.48C72.5861 12.66 73.3461 12.9 74.1061 13.2C74.8661 13.48 75.5061 13.96 76.0261 14.64C76.5661 15.32 76.8361 16.17 76.8361 17.19C76.8361 18.73 76.2561 19.92 75.0961 20.76C73.9561 21.58 72.5261 21.99 70.8061 21.99C67.7261 21.99 65.6261 20.8 64.5061 18.42L67.8661 16.53C68.3061 17.83 69.2861 18.48 70.8061 18.48C72.1861 18.48 72.8761 18.05 72.8761 17.19C72.8761 16.79 72.6061 16.47 72.0661 16.23C71.5461 15.97 70.9061 15.74 70.1461 15.54C69.3861 15.34 68.6261 15.09 67.8661 14.79C67.1061 14.49 66.4561 14.02 65.9161 13.38C65.3961 12.72 65.1361 11.9 65.1361 10.92C65.1361 9.44 65.6761 8.28 66.7561 7.44C67.8561 6.58 69.2161 6.15 70.8361 6.15C72.0561 6.15 73.1661 6.43 74.1661 6.99C75.1661 7.53 75.9561 8.31 76.5361 9.33L73.2361 11.13C72.7561 10.11 71.9561 9.6 70.8361 9.6C70.3361 9.6 69.9161 9.71 69.5761 9.93C69.2561 10.15 69.0961 10.45 69.0961 10.83Z" fill="#0784C7"/>
<path d="M81.2449 4.77C80.6049 4.77 80.0449 4.54 79.5649 4.08C79.1049 3.6 78.8749 3.04 78.8749 2.4C78.8749 1.76 79.1049 1.2 79.5649 0.72C80.0449 0.24 80.6049 0 81.2449 0C81.9049 0 82.4649 0.24 82.9249 0.72C83.4049 1.2 83.6449 1.76 83.6449 2.4C83.6449 3.04 83.4049 3.6 82.9249 4.08C82.4649 4.54 81.9049 4.77 81.2449 4.77ZM79.3249 21.57V6.57H83.1949V21.57H79.3249Z" fill="#0784C7"/>
<path d="M90.1898 10.83C90.1898 11.23 90.4498 11.56 90.9698 11.82C91.5098 12.06 92.1598 12.28 92.9198 12.48C93.6798 12.66 94.4398 12.9 95.1998 13.2C95.9598 13.48 96.5998 13.96 97.1198 14.64C97.6598 15.32 97.9298 16.17 97.9298 17.19C97.9298 18.73 97.3498 19.92 96.1898 20.76C95.0498 21.58 93.6198 21.99 91.8998 21.99C88.8198 21.99 86.7198 20.8 85.5998 18.42L88.9598 16.53C89.3998 17.83 90.3798 18.48 91.8998 18.48C93.2798 18.48 93.9698 18.05 93.9698 17.19C93.9698 16.79 93.6998 16.47 93.1598 16.23C92.6398 15.97 91.9998 15.74 91.2398 15.54C90.4798 15.34 89.7198 15.09 88.9598 14.79C88.1998 14.49 87.5498 14.02 87.0098 13.38C86.4898 12.72 86.2298 11.9 86.2298 10.92C86.2298 9.44 86.7698 8.28 87.8498 7.44C88.9498 6.58 90.3098 6.15 91.9298 6.15C93.1498 6.15 94.2598 6.43 95.2598 6.99C96.2598 7.53 97.0498 8.31 97.6298 9.33L94.3298 11.13C93.8498 10.11 93.0498 9.6 91.9298 9.6C91.4298 9.6 91.0098 9.71 90.6698 9.93C90.3498 10.15 90.1898 10.45 90.1898 10.83Z" fill="#0784C7"/>
</svg>
