<svg width="129" height="32" viewBox="0 0 129 32" fill="none" xmlns="http://www.w3.org/2000/svg">
<path d="M20.0571 28H14.6743L10.0114 20.1829L5.34857 28H0L7.33714 15.6914L0.377143 4H5.72572L10.0114 11.2L14.2971 4H19.6457L12.6857 15.6571L20.0571 28Z" fill="#0784C7"/>
<path d="M26.16 4C28.4686 4 30.4114 4.77714 31.9886 6.33143C33.5657 7.88572 34.3543 9.79429 34.3543 12.0571C34.3543 14.32 33.5657 16.2286 31.9886 17.7829C30.4114 19.3371 28.4686 20.1143 26.16 20.1143H21.9429V28H17.2114V4H26.16ZM26.16 15.6914C27.1657 15.6914 28 15.3486 28.6629 14.6629C29.3257 13.9543 29.6571 13.0857 29.6571 12.0571C29.6571 11.0057 29.3257 10.1371 28.6629 9.45143C28 8.76571 27.1657 8.42286 26.16 8.42286H21.9429V15.6914H26.16Z" fill="#0784C7"/>
<path d="M56.7063 23H52.9383L49.6743 17.528L46.4103 23H42.6663L47.8023 14.384L42.9303 6.2H46.6743L49.6743 11.24L52.6743 6.2H56.4183L51.5463 14.36L56.7063 23ZM65.4027 10.664C67.0187 10.664 68.3947 11.28 69.5307 12.512C70.6827 13.728 71.2587 15.224 71.2587 17C71.2587 18.776 70.6827 20.28 69.5307 21.512C68.3947 22.728 67.0187 23.336 65.4027 23.336C63.7227 23.336 62.4267 22.752 61.5147 21.584V27.8H58.4187V11H61.5147V12.416C62.4267 11.248 63.7227 10.664 65.4027 10.664ZM62.4507 19.448C63.0747 20.072 63.8667 20.384 64.8267 20.384C65.7867 20.384 66.5787 20.072 67.2027 19.448C67.8427 18.808 68.1627 17.992 68.1627 17C68.1627 16.008 67.8427 15.2 67.2027 14.576C66.5787 13.936 65.7867 13.616 64.8267 13.616C63.8667 13.616 63.0747 13.936 62.4507 14.576C61.8267 15.2 61.5147 16.008 61.5147 17C61.5147 17.992 61.8267 18.808 62.4507 19.448ZM76.0582 18.272C76.4742 19.776 77.6022 20.528 79.4422 20.528C80.6262 20.528 81.5222 20.128 82.1302 19.328L84.6262 20.768C83.4422 22.48 81.6982 23.336 79.3942 23.336C77.4102 23.336 75.8182 22.736 74.6182 21.536C73.4182 20.336 72.8182 18.824 72.8182 17C72.8182 15.192 73.4102 13.688 74.5942 12.488C75.7782 11.272 77.2982 10.664 79.1542 10.664C80.9142 10.664 82.3622 11.272 83.4982 12.488C84.6502 13.704 85.2262 15.208 85.2262 17C85.2262 17.4 85.1862 17.824 85.1062 18.272H76.0582ZM76.0102 15.872H82.1302C81.9542 15.056 81.5862 14.448 81.0262 14.048C80.4822 13.648 79.8582 13.448 79.1542 13.448C78.3222 13.448 77.6342 13.664 77.0902 14.096C76.5462 14.512 76.1862 15.104 76.0102 15.872ZM94.0595 10.664C95.3715 10.664 96.4515 11.104 97.2995 11.984C98.1635 12.864 98.5955 14.08 98.5955 15.632V23H95.4995V16.016C95.4995 15.216 95.2835 14.608 94.8515 14.192C94.4195 13.76 93.8435 13.544 93.1235 13.544C92.3235 13.544 91.6835 13.792 91.2035 14.288C90.7235 14.784 90.4835 15.528 90.4835 16.52V23H87.3875V11H90.4835V12.344C91.2355 11.224 92.4275 10.664 94.0595 10.664ZM104.095 14.408C104.095 14.728 104.303 14.992 104.719 15.2C105.151 15.392 105.671 15.568 106.279 15.728C106.887 15.872 107.495 16.064 108.103 16.304C108.711 16.528 109.223 16.912 109.639 17.456C110.071 18 110.287 18.68 110.287 19.496C110.287 20.728 109.823 21.68 108.895 22.352C107.983 23.008 106.839 23.336 105.463 23.336C102.999 23.336 101.319 22.384 100.423 20.48L103.111 18.968C103.463 20.008 104.247 20.528 105.463 20.528C106.567 20.528 107.119 20.184 107.119 19.496C107.119 19.176 106.903 18.92 106.471 18.728C106.055 18.52 105.543 18.336 104.935 18.176C104.327 18.016 103.719 17.816 103.111 17.576C102.503 17.336 101.983 16.96 101.551 16.448C101.135 15.92 100.927 15.264 100.927 14.48C100.927 13.296 101.359 12.368 102.223 11.696C103.103 11.008 104.191 10.664 105.487 10.664C106.463 10.664 107.351 10.888 108.151 11.336C108.951 11.768 109.583 12.392 110.047 13.208L107.407 14.648C107.023 13.832 106.383 13.424 105.487 13.424C105.087 13.424 104.751 13.512 104.479 13.688C104.223 13.864 104.095 14.104 104.095 14.408ZM113.814 9.56C113.302 9.56 112.854 9.376 112.47 9.008C112.102 8.624 111.918 8.176 111.918 7.664C111.918 7.152 112.102 6.704 112.47 6.32C112.854 5.936 113.302 5.744 113.814 5.744C114.342 5.744 114.79 5.936 115.158 6.32C115.542 6.704 115.734 7.152 115.734 7.664C115.734 8.176 115.542 8.624 115.158 9.008C114.79 9.376 114.342 9.56 113.814 9.56ZM112.278 23V11H115.374V23H112.278ZM120.97 14.408C120.97 14.728 121.178 14.992 121.594 15.2C122.026 15.392 122.546 15.568 123.154 15.728C123.762 15.872 124.37 16.064 124.978 16.304C125.586 16.528 126.098 16.912 126.514 17.456C126.946 18 127.162 18.68 127.162 19.496C127.162 20.728 126.698 21.68 125.77 22.352C124.858 23.008 123.714 23.336 122.338 23.336C119.874 23.336 118.194 22.384 117.298 20.48L119.986 18.968C120.338 20.008 121.122 20.528 122.338 20.528C123.442 20.528 123.994 20.184 123.994 19.496C123.994 19.176 123.778 18.92 123.346 18.728C122.93 18.52 122.418 18.336 121.81 18.176C121.202 18.016 120.594 17.816 119.986 17.576C119.378 17.336 118.858 16.96 118.426 16.448C118.01 15.92 117.802 15.264 117.802 14.48C117.802 13.296 118.234 12.368 119.098 11.696C119.978 11.008 121.066 10.664 122.362 10.664C123.338 10.664 124.226 10.888 125.026 11.336C125.826 11.768 126.458 12.392 126.922 13.208L124.282 14.648C123.898 13.832 123.258 13.424 122.362 13.424C121.962 13.424 121.626 13.512 121.354 13.688C121.098 13.864 120.97 14.104 120.97 14.408Z" fill="#0784C7"/>
</svg>
